HIERARCHY
ROOT Root
{
  OFFSET 0.0 0.0 0.0
  CHANNELS 6 Xposition Yposition Zposition Zrotation Yrotation Xrotation
  JOINT Hips
  {
    OFFSET 0.0 100.0 0.0
    CHANNELS 6 Xposition Yposition Zposition Zrotation Yrotation Xrotation
    JOINT Spine1
    {
      OFFSET 5.003913 -0.037094 -0.013727
      CHANNELS 3 Zrotation Yrotation Xrotation
      JOINT Spine2
      {
        OFFSET 7.125363 -1e-06 0.0
        CHANNELS 3 Zrotation Yrotation Xrotation
        JOINT Chest
        {
          OFFSET 7.594027 1e-06 0.0
          CHANNELS 3 Zrotation Yrotation Xrotation
          JOINT Neck1
          {
            OFFSET 26.313086 -0.460272 -0.181672
            CHANNELS 3 Zrotation Yrotation Xrotation
            JOINT Neck2
            {
              OFFSET 8.045911 0.0 0.0
              CHANNELS 3 Zrotation Yrotation Xrotation
              JOINT Head
              {
                OFFSET 6.432774 0.0 0.0
                CHANNELS 3 Zrotation Yrotation Xrotation
                JOINT HeadEnd
                {
                  OFFSET 16.169773 0.06451 0.00362
                  CHANNELS 3 Zrotation Yrotation Xrotation
                }
                JOINT Jaw
                {
                  OFFSET 0.108741 3.12938 0.002639
                  CHANNELS 3 Zrotation Yrotation Xrotation
                }
                JOINT LeftEye
                {
                  OFFSET 4.45173 8.166359 3.206392
                  CHANNELS 3 Zrotation Yrotation Xrotation
                }
                JOINT RightEye
                {
                  OFFSET 4.436895 8.135758 -3.222429
                  CHANNELS 3 Zrotation Yrotation Xrotation
                }
              }
            }
          }
          JOINT LeftShoulder
          {
            OFFSET 23.218927 5.195579 1.621656
            CHANNELS 3 Zrotation Yrotation Xrotation
            JOINT LeftArm
            {
              OFFSET 15.902118 2e-06 -2e-06
              CHANNELS 3 Zrotation Yrotation Xrotation
              JOINT LeftForeArm
              {
                OFFSET 28.739307 0.0 -1e-06
                CHANNELS 3 Zrotation Yrotation Xrotation
                JOINT LeftHand
                {
                  OFFSET 27.093981 -4e-06 0.0
                  CHANNELS 3 Zrotation Yrotation Xrotation
                  JOINT LeftHandThumb1
                  {
                    OFFSET 2.276781 3.380274 0.83384
                    CHANNELS 3 Zrotation Yrotation Xrotation
                    JOINT LeftHandThumb2
                    {
                      OFFSET 4.705309 -1e-06 -1e-06
                      CHANNELS 3 Zrotation Yrotation Xrotation
                      JOINT LeftHandThumb3
                      {
                        OFFSET 2.798515 0.0 3e-06
                        CHANNELS 3 Zrotation Yrotation Xrotation
                        JOINT LeftHandThumbEnd
                        {
                          OFFSET 3.180793 4e-06 -4e-06
                          CHANNELS 3 Zrotation Yrotation Xrotation
                        }
                      }
                    }
                  }
                  JOINT LeftHandIndex1
                  {
                    OFFSET 3.247786 2.352677 0.137192
                    CHANNELS 3 Zrotation Yrotation Xrotation
                    JOINT LeftHandIndex2
                    {
                      OFFSET 6.367095 1e-06 0.0
                      CHANNELS 3 Zrotation Yrotation Xrotation
                      JOINT LeftHandIndex3
                      {
                        OFFSET 3.662364 0.0 0.0
                        CHANNELS 3 Zrotation Yrotation Xrotation
                        JOINT LeftHandIndex4
                        {
                          OFFSET 2.329242 4e-06 -4e-06
                          CHANNELS 3 Zrotation Yrotation Xrotation
                          JOINT LeftHandIndexEnd
                          {
                            OFFSET 2.767823 1e-06 0.0
                            CHANNELS 3 Zrotation Yrotation Xrotation
                          }
                        }
                      }
                    }
                  }
                  JOINT LeftHandMiddle1
                  {
                    OFFSET 3.163612 0.945023 -0.406112
                    CHANNELS 3 Zrotation Yrotation Xrotation
                    JOINT LeftHandMiddle2
                    {
                      OFFSET 6.276789 3e-06 0.0
                      CHANNELS 3 Zrotation Yrotation Xrotation
                      JOINT LeftHandMiddle3
                      {
                        OFFSET 4.35652 -1e-06 4e-06
                        CHANNELS 3 Zrotation Yrotation Xrotation
                        JOINT LeftHandMiddle4
                        {
                          OFFSET 2.996877 0.0 8e-06
                          CHANNELS 3 Zrotation Yrotation Xrotation
                          JOINT LeftHandMiddleEnd
                          {
                            OFFSET 2.323256 3e-06 -4e-06
                            CHANNELS 3 Zrotation Yrotation Xrotation
                          }
                        }
                      }
                    }
                  }
                  JOINT LeftHandRing1
                  {
                    OFFSET 2.882606 -0.309162 0.107445
                    CHANNELS 3 Zrotation Yrotation Xrotation
                    JOINT LeftHandRing2
                    {
                      OFFSET 6.033198 0.0 4e-06
                      CHANNELS 3 Zrotation Yrotation Xrotation
                      JOINT LeftHandRing3
                      {
                        OFFSET 4.350578 3e-06 0.0
                        CHANNELS 3 Zrotation Yrotation Xrotation
                        JOINT LeftHandRing4
                        {
                          OFFSET 2.651321 2e-06 -7e-06
                          CHANNELS 3 Zrotation Yrotation Xrotation
                          JOINT LeftHandRingEnd
                          {
                            OFFSET 1.937663 1e-06 -4e-06
                            CHANNELS 3 Zrotation Yrotation Xrotation
                          }
                        }
                      }
                    }
                  }
                  JOINT LeftHandPinky1
                  {
                    OFFSET 2.865315 -1.525436 0.575687
                    CHANNELS 3 Zrotation Yrotation Xrotation
                    JOINT LeftHandPinky2
                    {
                      OFFSET 5.54936 1e-06 -8e-06
                      CHANNELS 3 Zrotation Yrotation Xrotation
                      JOINT LeftHandPinky3
                      {
                        OFFSET 3.070974 0.0 -4e-06
                        CHANNELS 3 Zrotation Yrotation Xrotation
                        JOINT LeftHandPinky4
                        {
                          OFFSET 1.549672 1e-06 0.0
                          CHANNELS 3 Zrotation Yrotation Xrotation
                          JOINT LeftHandPinkyEnd
                          {
                            OFFSET 1.952123 0.0 0.0
                            CHANNELS 3 Zrotation Yrotation Xrotation
                          }
                        }
                      }
                    }
                  }
                }
              }
            }
          }
          JOINT RightShoulder
          {
            OFFSET 23.161716 5.296122 -1.380114
            CHANNELS 3 Zrotation Yrotation Xrotation
            JOINT RightArm
            {
              OFFSET -16.027195 -2e-06 1.1e-05
              CHANNELS 3 Zrotation Yrotation Xrotation
              JOINT RightForeArm
              {
                OFFSET -28.736639 4e-06 2e-06
                CHANNELS 3 Zrotation Yrotation Xrotation
                JOINT RightHand
                {
                  OFFSET -27.133619 6e-06 0.0
                  CHANNELS 3 Zrotation Yrotation Xrotation
                  JOINT RightHandThumb1
                  {
                    OFFSET -2.274328 -3.351035 -0.83067
                    CHANNELS 3 Zrotation Yrotation Xrotation
                    JOINT RightHandThumb2
                    {
                      OFFSET -4.703594 -3e-06 2e-06
                      CHANNELS 3 Zrotation Yrotation Xrotation
                      JOINT RightHandThumb3
                      {
                        OFFSET -2.794935 -4e-06 -3e-06
                        CHANNELS 3 Zrotation Yrotation Xrotation
                        JOINT RightHandThumbEnd
                        {
                          OFFSET -3.183852 4e-06 1e-06
                          CHANNELS 3 Zrotation Yrotation Xrotation
                        }
                      }
                    }
                  }
                  JOINT RightHandIndex1
                  {
                    OFFSET -3.253496 -2.33755 -0.127667
                    CHANNELS 3 Zrotation Yrotation Xrotation
                    JOINT RightHandIndex2
                    {
                      OFFSET -6.344434 0.0 0.0
                      CHANNELS 3 Zrotation Yrotation Xrotation
                      JOINT RightHandIndex3
                      {
                        OFFSET -3.654871 0.0 -8e-06
                        CHANNELS 3 Zrotation Yrotation Xrotation
                        JOINT RightHandIndex4
                        {
                          OFFSET -2.327586 -1e-06 0.0
                          CHANNELS 3 Zrotation Yrotation Xrotation
                          JOINT RightHandIndexEnd
                          {
                            OFFSET -2.770001 3e-06 8e-06
                            CHANNELS 3 Zrotation Yrotation Xrotation
                          }
                        }
                      }
                    }
                  }
                  JOINT RightHandMiddle1
                  {
                    OFFSET -3.168223 -0.944764 0.411762
                    CHANNELS 3 Zrotation Yrotation Xrotation
                    JOINT RightHandMiddle2
                    {
                      OFFSET -6.266691 -1e-06 -4e-06
                      CHANNELS 3 Zrotation Yrotation Xrotation
                      JOINT RightHandMiddle3
                      {
                        OFFSET -4.348901 0.0 0.0
                        CHANNELS 3 Zrotation Yrotation Xrotation
                        JOINT RightHandMiddle4
                        {
                          OFFSET -3.00024 2e-06 -4e-06
                          CHANNELS 3 Zrotation Yrotation Xrotation
                          JOINT RightHandMiddleEnd
                          {
                            OFFSET -2.321477 -4e-06 -4e-06
                            CHANNELS 3 Zrotation Yrotation Xrotation
                          }
                        }
                      }
                    }
                  }
                  JOINT RightHandRing1
                  {
                    OFFSET -2.885654 0.293261 -0.119232
                    CHANNELS 3 Zrotation Yrotation Xrotation
                    JOINT RightHandRing2
                    {
                      OFFSET -6.032835 -1e-06 -4e-06
                      CHANNELS 3 Zrotation Yrotation Xrotation
                      JOINT RightHandRing3
                      {
                        OFFSET -4.33881 0.0 -4e-06
                        CHANNELS 3 Zrotation Yrotation Xrotation
                        JOINT RightHandRing4
                        {
                          OFFSET -2.654903 -4e-06 -4e-06
                          CHANNELS 3 Zrotation Yrotation Xrotation
                          JOINT RightHandRingEnd
                          {
                            OFFSET -1.935122 0.0 4e-06
                            CHANNELS 3 Zrotation Yrotation Xrotation
                          }
                        }
                      }
                    }
                  }
                  JOINT RightHandPinky1
                  {
                    OFFSET -2.866241 1.503904 -0.60527
                    CHANNELS 3 Zrotation Yrotation Xrotation
                    JOINT RightHandPinky2
                    {
                      OFFSET -5.553177 -2e-06 0.0
                      CHANNELS 3 Zrotation Yrotation Xrotation
                      JOINT RightHandPinky3
                      {
                        OFFSET -3.062664 -1e-06 -4e-06
                        CHANNELS 3 Zrotation Yrotation Xrotation
                        JOINT RightHandPinky4
                        {
                          OFFSET -1.546529 2e-06 4e-06
                          CHANNELS 3 Zrotation Yrotation Xrotation
                          JOINT RightHandPinkyEnd
                          {
                            OFFSET -1.952341 0.0 -4e-06
                            CHANNELS 3 Zrotation Yrotation Xrotation
                          }
                        }
                      }
                    }
                  }
                }
              }
            }
          }
        }
      }
    }
    JOINT LeftLeg
    {
      OFFSET -8.443107 2.567604 10.043214
      CHANNELS 3 Zrotation Yrotation Xrotation
      JOINT LeftShin
      {
        OFFSET 43.229198 1e-06 -1e-06
        CHANNELS 3 Zrotation Yrotation Xrotation
        JOINT LeftFoot
        {
          OFFSET 42.298611 1e-06 1e-06
          CHANNELS 3 Zrotation Yrotation Xrotation
          JOINT LeftToeBase
          {
            OFFSET 14.165858 1e-06 0.0
            CHANNELS 3 Zrotation Yrotation Xrotation
            JOINT LeftToeEnd
            {
              OFFSET 6.7141 -0.234461 0.0
              CHANNELS 3 Zrotation Yrotation Xrotation
            }
          }
        }
      }
    }
    JOINT RightLeg
    {
      OFFSET -8.303923 2.592729 -10.047278
      CHANNELS 3 Zrotation Yrotation Xrotation
      JOINT RightShin
      {
        OFFSET -43.369682 0.0 1e-06
        CHANNELS 3 Zrotation Yrotation Xrotation
        JOINT RightFoot
        {
          OFFSET -42.260784 4e-06 2e-06
          CHANNELS 3 Zrotation Yrotation Xrotation
          JOINT RightToeBase
          {
            OFFSET -14.222245 -2e-06 -1e-06
            CHANNELS 3 Zrotation Yrotation Xrotation
            JOINT RightToeEnd
            {
              OFFSET -6.660062 0.232574 -2e-06
              CHANNELS 3 Zrotation Yrotation Xrotation
            }
          }
        }
      }
    }
  }
}
MOTION
Frames: 4
Frame Time: 0.03333333333333333
0.0 0.0 0.0 0.0 -0.0 0.0 -19.819426 50.086391 129.133347 97.474068 -50.087429 84.171417 16.355106 -1.85556 -0.546197 -4.596543 -1.020191 0.162218 21.032669 -0.869296 -1.132428 23.305693 2.601823 2.439481 -2.579603 -1.007081 -0.365419 -27.231552 -0.404031 -0.867186 6e-06 -0.0 0.0 -0.147919 -0.12031 0.010582 0.06971 -0.148989 0.076098 0.022736 -0.096898 -0.05363 -17.325605 -82.792 23.754576 83.344208 -7.709758 -24.497173 22.542318 -0.778829 0.018064 12.193668 73.226974 18.86808 17.636631 -26.322725 52.41119 -19.466658 -14.395596 29.410385 -0.0 -8.774821 -2e-06 15.363242 -18.588856 6.854364 -0.609776 -1.795654 -3.889327 -4.80709 -11.046811 -2.93785 2e-06 -20.976015 1e-06 -5.019972 -25.033558 -4.031883 6e-06 -0.0 1e-06 -10.634535 -5.686971 -3.565588 10.573271 -17.922949 -3.113899 1e-06 -13.821206 1e-06 -0.501778 -31.181505 -4.027017 -11.892323 -59.366039 8.637194 -13.982713 -7.150198 -2.875042 13.772728 -8.401489 -3.21824 0.347731 -34.211544 0.771654 -0.963028 -17.733366 2.621017 -0.0 -0.0 -1e-06 -17.346422 -20.095217 -4.20178 21.757555 -1.638375 3.866428 0.0 -6.338822 1e-06 -1.69759 -22.591742 -6.194005 -0.0 -5e-06 -3e-06 -106.298317 -77.647972 -68.227661 59.601692 13.520684 -39.44302 23.328936 -1.835913 -0.549687 15.224475 36.657898 25.666199 22.182106 -20.375893 49.933308 -16.701811 -16.743521 28.476522 0.0 -12.690597 0.0 16.657049 -17.669369 2.03034 -0.105919 -1.513856 -4.27588 -5.039039 -5.612869 -2.953555 5e-06 -11.020519 -1e-06 -6.111296 -15.895329 -3.840471 -0.0 1e-06 1e-06 -10.283367 -5.680285 -4.341838 11.02829 -11.302404 -2.372632 -1.384268 -14.23858 -6.320121 -0.625438 -26.924183 -3.8276 -3.908973 -49.650978 -4.437137 -13.70852 -7.363475 -3.720938 18.141146 -14.052733 -3.242675 5e-06 -18.78727 -2e-06 -0.429711 -8.45604 2.555502 -1e-06 1e-06 -0.0 -15.92353 -20.094479 -5.473584 30.419205 -7.190823 1.735927 4e-06 -8.162924 -1e-06 -1.861901 -22.861467 -6.16794 -1e-06 -2e-06 -0.0 110.267242 -7.728982 -2.459406 133.250214 -0.248543 0.33479 -101.759193 13.743968 6.292272 -22.566067 1.601848 1.824762 -0.999999 -0.0 -0.0 -41.720383 -9.355455 0.746054 106.614006 -1.686356 0.15031 -107.98838 7.668993 5.015542 -30.692783 0.855515 1.412588 -1.000004 0.0 0.0 
0.0 0.0 0.0 0.0 -0.0 0.0 -19.774046 49.931885 130.515427 97.817787 -49.677036 82.574547 16.361074 -2.065901 -0.472885 -4.602411 -1.150395 0.344236 21.30121 -1.171954 -0.955286 23.731356 2.35297 2.489366 -2.578764 -0.934709 -0.043575 -27.305742 -0.287948 -0.367263 5e-06 0.0 0.0 -0.137863 -0.139173 0.012175 0.077387 -0.17452 0.079388 0.027225 -0.107619 -0.057875 -20.818798 -83.225266 27.599482 82.584702 -8.81387 -24.490759 23.410158 -0.760781 -0.066528 15.79462 73.810318 22.710897 17.636637 -26.322733 52.411186 -19.46666 -14.395596 29.410385 -1e-06 -8.774822 -1e-06 15.354438 -18.508232 6.838975 -0.609777 -1.795654 -3.889328 -4.807088 -11.046812 -2.937851 4e-06 -20.976017 1e-06 -5.01997 -25.033556 -4.031881 6e-06 -0.0 1e-06 -10.634535 -5.686972 -3.565588 10.573275 -17.922951 -3.113899 2e-06 -13.821206 2e-06 -0.501776 -31.181498 -4.027017 -11.851112 -59.517117 8.628157 -13.982713 -7.150198 -2.875042 13.772731 -8.401493 -3.218241 0.347735 -34.211544 0.771654 -0.963028 -17.733366 2.62102 -0.0 -0.0 -1e-06 -17.346416 -20.095217 -4.201783 21.757557 -1.638375 3.866429 1e-06 -6.338824 1e-06 -1.697589 -22.591743 -6.194006 -0.0 -5e-06 -2e-06 -108.592346 -77.641403 -65.885155 61.181858 13.242686 -38.521603 22.513466 -1.708185 -0.498674 15.068086 37.731884 25.551283 22.182114 -20.3759 49.933323 -16.701809 -16.74353 28.47653 -3e-06 -12.690602 1e-06 16.731472 -17.741417 2.089147 -0.105919 -1.513856 -4.275882 -5.039042 -5.612873 -2.953557 4e-06 -11.020523 -2e-06 -6.111298 -15.895334 -3.840471 -0.0 -0.0 -0.0 -10.283372 -5.68029 -4.341837 11.028296 -11.302403 -2.372634 -1.384269 -14.238583 -6.320121 -0.625442 -26.924191 -3.827603 -4.058439 -49.875572 -4.345414 -13.708527 -7.363476 -3.72094 18.141151 -14.05274 -3.242675 4e-06 -18.787273 -1e-06 -0.429712 -8.456045 2.555503 -1e-06 -0.0 0.0 -15.923539 -20.094486 -5.473582 30.419218 -7.190824 1.735924 1e-06 -8.162927 -1e-06 -1.861905 -22.861473 -6.167943 -1e-06 -2e-06 -1e-06 108.676872 -7.680925 -2.576403 133.192612 0.014576 0.465117 -101.816315 14.401273 5.935555 -24.329727 1.601781 1.753536 -0.999996 -0.0 -0.0 -39.946758 -8.983971 1.355527 104.823929 -1.906207 0.139996 -107.833908 7.770081 5.391119 -31.521145 0.864783 1.383663 -1.000002 0.0 -0.0 
0.0 0.0 0.0 0.0 -0.0 0.0 -19.782492 49.699078 131.92485 97.849228 -49.351398 81.143219 16.265625 -2.20023 -0.381013 -4.655038 -1.243315 0.458722 21.461391 -1.427193 -0.789149 24.154556 2.176374 2.524679 -2.586798 -0.822171 0.368174 -27.295298 -0.280026 0.169932 6e-06 -0.0 0.0 -0.134633 -0.126827 0.007483 0.043368 -0.163759 0.064474 -0.007742 -0.09168 -0.054563 -24.043266 -83.648407 31.217537 81.503006 -10.236448 -24.411249 24.360865 -0.677501 -0.107447 19.271574 74.271049 26.208075 17.636635 -26.322723 52.411179 -19.466658 -14.395594 29.410378 -1e-06 -8.774821 -2e-06 15.365569 -18.451641 6.790849 -0.609776 -1.795654 -3.889328 -4.807091 -11.046811 -2.937849 4e-06 -20.976011 2e-06 -5.019971 -25.033552 -4.03188 6e-06 -0.0 1e-06 -10.634535 -5.68697 -3.565587 10.573272 -17.922947 -3.113897 2e-06 -13.821206 1e-06 -0.501777 -31.181498 -4.027017 -11.74482 -59.534218 8.552686 -13.982714 -7.150197 -2.875042 13.772728 -8.401489 -3.218237 0.347731 -34.211552 0.771657 -0.963029 -17.73337 2.62102 -1e-06 0.0 -0.0 -17.346418 -20.095217 -4.201782 21.757555 -1.638375 3.86643 1e-06 -6.338821 1e-06 -1.69759 -22.591742 -6.194005 -0.0 -4e-06 -2e-06 -110.35997 -77.906738 -63.953499 63.300419 12.47734 -37.636826 21.982065 -1.628903 -0.469571 15.678769 39.243271 25.966841 22.182131 -20.375898 49.933319 -16.701813 -16.743528 28.476524 -1e-06 -12.690602 -2e-06 16.799091 -17.818102 2.140734 -0.10592 -1.513853 -4.275882 -5.039042 -5.612873 -2.953558 4e-06 -11.020525 -1e-06 -6.111298 -15.895332 -3.840472 0.0 -0.0 1e-06 -10.283373 -5.680287 -4.341838 11.028296 -11.302402 -2.37263 -1.38427 -14.238581 -6.32012 -0.62544 -26.924191 -3.827598 -4.188727 -50.042458 -4.259622 -13.708527 -7.363475 -3.72094 18.14115 -14.052736 -3.242671 6e-06 -18.78727 1e-06 -0.429711 -8.456039 2.555506 -0.0 -0.0 -0.0 -15.923539 -20.094482 -5.473586 30.419214 -7.190827 1.735931 3e-06 -8.162926 -1e-06 -1.861901 -22.861467 -6.167941 -1e-06 -2e-06 -0.0 108.315941 -8.043858 -2.385424 132.992493 0.251257 0.550375 -101.267593 14.352903 5.851222 -26.020416 1.597451 1.720454 -0.999996 1e-06 -0.0 -38.149418 -8.421005 1.903361 102.999908 -2.074664 0.134117 -107.7761 7.809309 5.848416 -32.00769 0.874166 1.369689 -1.000002 -0.0 -0.0 
0.0 0.0 0.0 0.0 -0.0 0.0 -19.847303 49.289471 133.281677 97.615692 -49.137512 79.798279 16.076956 -2.27215 -0.276613 -4.66995 -1.229249 0.643529 21.492798 -1.679694 -0.739322 24.447273 2.159223 2.600152 -2.551074 -0.869696 0.829796 -27.095181 -0.303517 0.796225 7e-06 -0.0 -0.0 -0.124707 -0.15509 0.012697 0.051132 -0.195722 0.066981 -0.004609 -0.112054 -0.052459 -27.936249 -83.928879 35.476715 80.272156 -11.905799 -24.337484 25.459175 -0.585773 -0.078884 22.288961 74.642792 29.132107 17.63662 -26.322733 52.411201 -19.466665 -14.395602 29.410395 1e-06 -8.774821 0.0 15.227705 -18.478561 6.713027 -0.609776 -1.795654 -3.889328 -4.807088 -11.046813 -2.937851 2e-06 -20.976025 1e-06 -5.019972 -25.033562 -4.031884 6e-06 -0.0 1e-06 -10.634534 -5.686971 -3.565587 10.573271 -17.922955 -3.113902 1e-06 -13.821213 1e-06 -0.501778 -31.181511 -4.02702 -11.959287 -59.480526 8.427815 -13.982713 -7.150201 -2.875042 13.772729 -8.401491 -3.218243 0.347731 -34.211555 0.771655 -0.963028 -17.733372 2.621017 -0.0 -0.0 0.0 -17.346418 -20.095222 -4.201782 21.757557 -1.638374 3.866425 0.0 -6.338825 1e-06 -1.697589 -22.591747 -6.194009 -0.0 -4e-06 -2e-06 -111.847954 -78.24543 -62.236103 65.642586 11.334065 -36.852779 21.712801 -1.535716 -0.419729 16.796234 41.026882 26.460142 22.18211 -20.375891 49.933323 -16.701817 -16.743528 28.476534 1e-06 -12.690603 0.0 16.86068 -17.9207 2.179171 -0.10592 -1.513855 -4.275882 -5.03904 -5.612873 -2.953557 5e-06 -11.020523 -2e-06 -6.111297 -15.895334 -3.840472 -0.0 1e-06 0.0 -10.283369 -5.680288 -4.341838 11.028294 -11.302406 -2.372633 -1.384268 -14.238585 -6.320123 -0.625437 -26.924191 -3.827603 -4.364924 -50.058437 -4.181134 -13.708525 -7.363475 -3.720938 18.14115 -14.052739 -3.242678 6e-06 -18.787275 -3e-06 -0.429711 -8.456045 2.555504 -1e-06 0.0 -0.0 -15.923534 -20.094486 -5.473587 30.419214 -7.190826 1.735924 4e-06 -8.162925 -2e-06 -1.8619 -22.861469 -6.167943 -1e-06 -3e-06 -1e-06 108.838737 -8.816445 -1.664779 132.578857 0.56308 0.685519 -99.684731 14.568767 5.950906 -28.564133 1.629177 1.629549 -0.999999 0.0 0.0 -36.419086 -7.60254 2.540726 101.332458 -2.16752 0.104184 -107.864052 7.730381 6.756969 -32.531963 0.893489 1.363043 -1.000003 0.0 0.0 
